<svg xmlns="http://www.w3.org/2000/svg" width="16" height="17" viewBox="0 0 16 17" fill="none">
<path d="M3.468 2.03962C5.303 3.41662 7.276 6.20962 8 7.70762C8.725 6.20962 10.697 3.41762 12.532 2.03962C13.855 1.04662 16 0.277618 16 2.72362C16 3.21262 15.72 6.82862 15.556 7.41562C14.984 9.45562 12.903 9.97662 11.052 9.66162C14.288 10.2126 15.112 12.0366 13.333 13.8616C9.957 17.3256 8.481 12.9916 8.103 11.8816C8.033 11.6776 8 11.5816 8 11.6636C8 11.5826 7.967 11.6776 7.898 11.8816C7.519 12.9916 6.043 17.3256 2.667 13.8616C0.889 12.0366 1.712 10.2116 4.947 9.66162C3.097 9.97662 1.015 9.45662 0.444 7.41562C0.28 6.82862 0 3.21162 0 2.72362C0 0.277618 2.145 1.04662 3.468 2.03962Z" fill="white"/>
</svg>