<svg xmlns="http://www.w3.org/2000/svg" width="21" height="17" viewBox="0 0 21 17" fill="none">
<path d="M1.26673 0.62513V0.0917969C1.12528 0.0917969 0.989628 0.147987 0.889608 0.248007C0.789589 0.348026 0.733398 0.483681 0.733398 0.62513H1.26673ZM20.4667 0.62513H21.0001C21.0001 0.483681 20.9439 0.348026 20.8439 0.248007C20.7438 0.147987 20.6082 0.0917969 20.4667 0.0917969V0.62513ZM1.26673 1.15846H20.4667V0.0917969H1.26673V1.15846ZM19.9334 0.62513V13.4251H21.0001V0.62513H19.9334ZM18.3334 15.0251H3.40006V16.0918H18.3334V15.0251ZM1.80007 13.4251V0.62513H0.733398V13.4251H1.80007ZM3.40006 15.0251C2.97572 15.0251 2.56875 14.8566 2.26869 14.5565C1.96864 14.2564 1.80007 13.8495 1.80007 13.4251H0.733398C0.733398 14.1324 1.01435 14.8107 1.51445 15.3107C2.01454 15.8108 2.69282 16.0918 3.40006 16.0918V15.0251ZM19.9334 13.4251C19.9334 13.8495 19.7648 14.2564 19.4648 14.5565C19.1647 14.8566 18.7577 15.0251 18.3334 15.0251V16.0918C19.0406 16.0918 19.7189 15.8108 20.219 15.3107C20.7191 14.8107 21.0001 14.1324 21.0001 13.4251H19.9334Z" fill="white"/>
<path d="M1.26904 0.625L10.869 10.225L20.469 0.625" stroke="white" stroke-width="1.06667" stroke-linecap="round" stroke-linejoin="round"/>
</svg>