<svg xmlns="http://www.w3.org/2000/svg" width="114" height="20" viewBox="0 0 114 20" fill="none">
<g clip-path="url(#clip0_7339_180365)">
<path d="M57.9235 0.621943C59.2625 0.621943 59.4609 0.820395 59.4609 2.19303C59.4609 3.64835 59.4444 5.10366 59.3783 6.57552C59.3617 7.18742 59.6593 7.41895 60.1883 7.41895C61.9737 7.41895 63.7756 7.50163 65.561 7.36933C66.123 7.33626 66.2718 7.05512 66.3049 6.54245C66.4041 4.97136 66.4206 3.40028 66.371 1.8292C66.3545 1.01885 66.5694 0.655018 67.4125 0.671556C68.6854 0.704631 69.9583 0.671556 71.2312 0.63848C71.909 0.63848 72.2562 0.952697 72.2562 1.63074C72.2562 3.28452 72.2231 4.95482 72.2231 6.6086C72.2231 9.68461 72.2231 12.7441 72.2231 15.8201C72.2231 16.4982 72.19 17.1927 72.19 17.8708C72.19 18.3835 71.9421 18.5819 71.4296 18.5984C70.041 18.5984 68.6523 18.6315 67.2637 18.6481C66.6355 18.6481 66.2883 18.3669 66.2883 17.7054C66.2883 15.9855 66.2883 14.2656 66.3214 12.5456C66.3379 11.8511 66.1065 11.5368 65.3957 11.5368C63.6599 11.5534 61.9241 11.5368 60.1883 11.5368C59.5436 11.5368 59.3452 11.9172 59.3452 12.4795C59.3452 14.0836 59.3121 15.6878 59.3452 17.292C59.3452 18.4661 59.2791 18.5654 58.1053 18.5488C56.9151 18.5488 55.7248 18.5488 54.5511 18.5819C53.8072 18.5984 53.4435 18.3504 53.4435 17.54C53.4766 14.3648 53.4766 11.173 53.4766 7.99777C53.4766 7.28664 53.4104 6.57552 53.427 5.84786C53.427 5.33519 53.2121 5.10366 52.7161 5.10366C51.3936 5.10366 50.0546 5.10366 48.7321 5.10366C48.0543 5.10366 47.6906 5.41788 47.7071 6.17862C47.7567 9.5027 47.7071 16.5478 47.7071 16.7462C47.5418 18.5819 47.5418 18.5819 45.6573 18.5488C44.7315 18.5488 43.8058 18.5488 42.88 18.5488C42.1526 18.5654 41.822 18.2842 41.822 17.54C41.8385 14.3317 41.8385 11.1234 41.8385 7.91508C41.8385 7.25357 41.7724 6.59206 41.8055 5.94709C41.8385 5.21943 41.4748 5.08713 40.8632 5.08713C39.6564 5.10366 38.4331 5.08713 37.2098 5.08713C36.1022 5.08713 35.9534 4.90521 35.9699 3.8468C35.9699 3.06952 35.9699 2.30879 36.003 1.53152C36.036 0.853471 36.2344 0.588867 36.9122 0.605405C40.2185 0.63848 43.5082 0.63848 46.8145 0.655018C47.079 0.655018 47.3435 0.655018 47.5914 0.655018C47.5914 0.63848 54.4685 0.588867 57.9235 0.588867V0.621943Z" fill="black"/>
<path d="M102.426 11.306C102.707 11.2729 103.103 9.22225 103.351 8.26306C103.963 5.91471 104.657 3.58289 105.368 1.26761C105.451 0.969928 105.996 0.639174 106.327 0.622636C108.575 0.573023 110.84 0.622636 113.088 0.622636C113.7 0.622636 113.997 0.920315 113.997 1.51567C113.997 3.25213 113.964 5.00513 113.964 6.74159C113.964 9.81761 113.997 12.8771 113.997 15.9531C113.997 16.2342 113.964 16.5154 113.948 16.8131C113.832 18.5991 113.832 18.5991 112.03 18.5991C111.22 18.5991 110.41 18.5991 109.6 18.6487C108.906 18.6818 108.575 18.4172 108.575 17.7226C108.592 14.7624 108.608 11.8187 108.625 8.85842C108.625 8.42844 108.625 7.94885 108.608 7.50233C108.575 7.28734 108.311 7.23772 108.195 7.46925C107.964 8.03153 107.765 8.61035 107.6 9.18917C106.922 11.4052 106.261 13.6378 105.6 15.8539C105.368 16.6146 105.153 17.3919 104.839 18.1361C104.74 18.3511 104.376 18.5826 104.128 18.5991C102.822 18.6488 101.516 18.6653 100.227 18.5826C99.9128 18.5661 99.4499 18.1361 99.3507 17.8219C98.3919 14.7955 97.5158 11.736 96.59 8.70958C96.4743 8.31268 96.3255 7.91577 96.1767 7.5354C96.0941 7.33695 95.8792 7.33695 95.813 7.58502C95.78 7.83308 95.7469 8.09769 95.7469 8.34575C95.7304 11.4714 95.6973 14.597 95.7138 17.7061C95.7138 18.4338 95.3832 18.6984 94.722 18.6818C93.6474 18.6653 92.5894 18.6488 91.5149 18.6157C90.9032 18.5991 90.6718 18.2684 90.6883 17.6565C90.7049 14.4482 90.7049 11.2399 90.7214 8.03153C90.7214 5.83202 90.7214 3.6325 90.7379 1.43298C90.7379 0.903777 91.0189 0.639174 91.548 0.655712C93.7797 0.655712 95.9949 0.639174 98.2266 0.705325C98.5738 0.705325 99.1028 1.11877 99.2185 1.43298C99.8136 3.15291 100.31 4.92244 100.822 6.67544C101.235 8.04807 101.616 9.4207 102.029 10.7933C102.062 10.9091 102.194 11.3722 102.442 11.3225L102.426 11.306Z" fill="black"/>
<path d="M8.05075 0.754752C8.74507 0.754752 8.99304 1.13512 9.04263 1.79663C9.24101 3.94653 9.12529 4.07883 6.95969 3.92999C6.38109 3.89692 5.80249 3.79769 5.2239 3.79769C4.61224 3.79769 4.33121 4.11191 4.33121 4.78995C4.33121 5.40185 4.26508 6.0799 4.29814 6.75794C4.33121 7.3533 4.51305 7.66752 5.12471 7.71713C6.21578 7.81636 6.84397 7.89904 7.9185 7.68405C8.57976 7.55175 8.92691 6.12951 8.99304 5.48454C9.20795 3.59924 9.68736 2.01162 11.324 1.11858C12.2497 0.605912 14.1839 0.225545 15.7213 0.457073C16.2668 0.539762 16.8124 0.605912 17.3414 0.738214C19.0771 1.16819 20.1517 2.3093 20.4162 3.99614C20.6807 5.69953 20.6807 7.43599 20.7137 9.17245C20.7468 10.6608 20.7468 12.1492 20.6642 13.6376C20.4492 17.2594 16.9281 20.17 12.7952 18.632C12.7622 18.632 12.7457 18.6155 12.7126 18.5989C9.63776 17.5901 9.17488 15.9198 8.91038 12.8273C8.77813 11.405 7.88544 11.0577 7.48869 11.0081C6.74478 10.9254 6.46375 10.9751 5.68678 10.9254C4.61224 10.8428 4.36427 11.0247 4.34774 12.0665C4.31468 13.7534 4.29814 15.4568 4.29814 17.1436C4.29814 18.4997 4.31468 18.5163 2.92604 18.6155C2.26479 18.6651 1.60354 18.6816 0.942285 18.6816C0.314095 18.6651 0 18.3343 0 17.6398C0.0330626 13.5384 0.049594 9.45359 0.049594 5.35224C0.049594 4.09537 0.0661253 2.8385 0.049594 1.58164C0.049594 1.00282 0.281032 0.721676 0.87616 0.721676C1.65313 0.721676 2.4301 0.721676 3.20708 0.721676C3.25667 0.721676 6.41415 0.721676 8.05075 0.754752ZM16.2834 9.80088C16.2834 7.99827 16.2007 5.89798 16.0023 4.62458C15.8866 3.91346 15.2749 3.54963 14.5806 3.63231C13.8863 3.73154 13.4896 4.22767 13.4896 4.97187C13.44 7.84943 13.3738 10.7435 13.3904 13.6211C13.3904 15.0599 13.9524 15.5725 14.6633 15.5725C15.7378 15.5725 16.1015 14.5141 16.1676 13.7038C16.2338 12.7611 16.2834 11.1735 16.2834 9.80088Z" fill="black"/>
<path d="M81.731 18.6172C79.4993 18.6172 77.2841 18.6172 75.0523 18.6172C74.0439 18.6172 73.829 18.4353 73.8125 17.4265C73.8125 14.2678 73.8125 11.1256 73.829 7.9669C73.829 5.80046 73.8456 3.61748 73.8621 1.45104C73.8621 0.789528 74.2258 0.657227 74.8209 0.657227C77.6478 0.673764 80.4912 0.657227 83.318 0.657227C84.9877 0.657227 86.6739 0.657227 88.3435 0.657227C88.9717 0.657227 89.3354 0.905292 89.3519 1.55026C89.3519 2.37715 89.4346 3.22057 89.2858 4.03092C89.2032 4.41129 88.7403 4.69243 88.2939 4.70897C85.8142 4.79166 83.318 4.79166 80.8383 4.70897C79.9456 4.69243 79.7142 5.08933 79.6811 5.81699C79.6811 6.04852 79.6811 6.32966 79.6646 6.52812C79.6315 7.38808 80.0448 7.56999 80.7722 7.56999C82.9708 7.56999 85.1695 7.56999 87.3682 7.55345C88.8891 7.55345 89.0213 7.70229 88.9221 9.15761C88.9221 9.20723 88.9221 9.27338 88.9221 9.32299C88.7403 11.754 88.7899 11.3075 86.7896 11.3571C84.7397 11.4067 82.6898 11.3737 80.6399 11.3571C80.0613 11.3571 79.7803 11.5887 79.7638 12.1509C79.615 14.7474 79.7307 14.582 81.8467 14.5654C83.8966 14.5654 85.9465 14.5158 87.9964 14.5489C89.5668 14.5654 89.6495 14.6481 89.5338 16.2027C89.5338 16.3515 89.5338 16.5996 89.5173 16.7319C89.3519 18.5345 89.3519 18.551 87.4839 18.5841C85.5828 18.6006 83.6652 18.5841 81.7641 18.5841L81.731 18.6172Z" fill="black"/>
<path d="M28.5852 0.821332C31.1145 1.2017 32.3047 2.98777 32.3212 5.66688C32.3212 5.76611 32.3047 7.28758 32.3047 7.40334C32.2221 9.15634 31.7757 9.33826 30.8334 10.2148C30.6185 10.4132 30.4863 10.8763 30.5689 11.1409C31.164 13.3238 31.8253 15.4903 32.4535 17.6567C32.7015 18.4836 32.5857 18.6325 31.7261 18.6325C30.8004 18.6325 29.8581 18.6655 28.9654 18.5167C28.6017 18.4505 28.1223 18.004 28.0066 17.6237C27.5272 15.9203 27.18 14.1838 26.7337 12.4639C26.651 12.1331 26.5353 11.5708 26.1055 11.5543C25.6426 11.5543 25.5765 12.2489 25.5599 12.5962C25.4938 14.2334 25.5103 15.8541 25.5434 17.4914C25.5434 18.2686 25.3285 18.5663 24.4523 18.5994C23.7415 18.6159 23.0141 18.5994 22.2867 18.5994C21.5428 18.5994 21.1957 18.3182 21.1957 17.5244C21.1626 14.0846 21.0469 10.6613 21.0469 7.22143C21.0469 5.28652 21.1957 3.3516 21.2783 1.41669C21.2948 0.887483 21.5759 0.639417 22.1049 0.655955C23.0306 0.655955 23.9564 0.655955 24.8821 0.655955C24.8821 0.62288 27.3784 0.606342 28.6017 0.804794L28.5852 0.821332ZM25.5269 6.82452C25.5269 6.82452 25.5269 7.68448 25.5599 8.11447C25.6261 8.80905 26.0393 9.07365 26.7006 8.8752C27.3453 8.67675 27.709 8.24677 27.7917 7.56872C27.8247 7.22143 27.8908 6.89067 27.8743 6.54338C27.8412 5.81572 27.8412 5.05499 27.6925 4.34387C27.5272 3.58313 26.8163 3.51698 26.1716 3.56659C25.8079 3.59967 25.593 3.88081 25.5765 4.55886C25.5599 5.2369 25.5269 6.1134 25.5269 6.82452Z" fill="black"/>
</g>
<defs>
<clipPath id="clip0_7339_180365">
<rect width="114" height="18.6545" fill="black" transform="translate(0 0.500977)"/>
</clipPath>
</defs>
</svg>