<svg xmlns="http://www.w3.org/2000/svg" width="17" height="17" viewBox="0 0 17 17" fill="none">
<path fill-rule="evenodd" clip-rule="evenodd" d="M0.672852 8.0918C0.672852 4.89612 0.672852 3.29828 1.43436 2.1474C1.7744 1.63348 2.21453 1.19335 2.72845 0.853301C3.87933 0.0917969 5.47717 0.0917969 8.67285 0.0917969C11.8685 0.0917969 13.4664 0.0917969 14.6172 0.853301C15.1312 1.19335 15.5713 1.63348 15.9113 2.1474C16.6729 3.29828 16.6729 4.89612 16.6729 8.0918C16.6729 11.2875 16.6729 12.8853 15.9113 14.0362C15.5713 14.5501 15.1312 14.9902 14.6172 15.3303C13.4664 16.0918 11.8685 16.0918 8.67285 16.0918C5.47717 16.0918 3.87933 16.0918 2.72845 15.3303C2.21453 14.9902 1.7744 14.5501 1.43436 14.0362C0.672852 12.8853 0.672852 11.2875 0.672852 8.0918ZM12.8131 8.09196C12.8131 10.3794 10.9588 12.2337 8.67142 12.2337C6.38402 12.2337 4.52972 10.3794 4.52972 8.09196C4.52972 5.80457 6.38402 3.95027 8.67142 3.95027C10.9588 3.95027 12.8131 5.80457 12.8131 8.09196ZM8.67142 10.8324C10.1849 10.8324 11.4119 9.60547 11.4119 8.09196C11.4119 6.57845 10.1849 5.35151 8.67142 5.35151C7.15791 5.35151 5.93097 6.57845 5.93097 8.09196C5.93097 9.60547 7.15791 10.8324 8.67142 10.8324ZM12.9761 4.7154C13.5136 4.7154 13.9493 4.27969 13.9493 3.74222C13.9493 3.20475 13.5136 2.76904 12.9761 2.76904C12.4386 2.76904 12.0029 3.20475 12.0029 3.74222C12.0029 4.27969 12.4386 4.7154 12.9761 4.7154Z" fill="black"/>
</svg>