<svg xmlns="http://www.w3.org/2000/svg" width="14" height="16" viewBox="0 0 14 16" fill="none">
<path d="M10.9781 2.83741C10.397 2.17374 10.0767 1.3216 10.0768 0.439453H7.44922V10.9837C7.42938 11.5544 7.18861 12.0951 6.77771 12.4917C6.36682 12.8884 5.81793 13.1099 5.24684 13.1095C4.03936 13.1095 3.03596 12.1231 3.03596 10.8986C3.03596 9.43605 4.44752 8.33911 5.9016 8.78979V6.10272C2.96793 5.71156 0.399902 7.99047 0.399902 10.8986C0.399902 13.7303 2.74684 15.7456 5.23834 15.7456C7.90841 15.7456 10.0768 13.5772 10.0768 10.8986V5.55C11.1422 6.31518 12.4215 6.72572 13.7332 6.72347V4.09592C13.7332 4.09592 12.1346 4.17245 10.9781 2.83741Z" fill="black"/>
</svg>