<svg width="36" height="16" viewBox="0 0 36 16" fill="none" xmlns="http://www.w3.org/2000/svg">
<path d="M31.6256 5.28033C31.6256 6.23603 32.4004 7.01078 33.3561 7.01078H33.8844C34.5483 7.01078 35.0865 7.54897 35.0865 8.21286C35.0865 8.87675 34.5483 9.41494 33.8844 9.41494H33.3561C32.4004 9.41494 31.6256 10.1897 31.6256 11.1454V12.0617C31.6256 12.7537 31.0647 13.3146 30.3727 13.3146C29.6807 13.3146 29.1198 12.7537 29.1198 12.0617V11.1501C29.1198 10.1918 28.3429 9.41494 27.3846 9.41494H26.8515C26.1876 9.41494 25.6494 8.87675 25.6494 8.21286C25.6494 7.54897 26.1876 7.01078 26.8515 7.01078H27.3846C28.3429 7.01078 29.1198 6.23392 29.1198 5.27561V4.53441C29.1198 3.84245 29.6807 3.28149 30.3727 3.28149C31.0647 3.28149 31.6256 3.84245 31.6256 4.53441V5.28033Z" fill="white"/>
<path d="M8.32652 3.3364C11.206 3.22237 12.4975 6.04133 12.4043 8.18036C12.3853 8.61323 12.3599 9.04611 12.3641 9.47898C12.3747 10.8494 12.3895 12.2198 12.4276 13.5902C12.4361 13.9302 12.4784 14.268 12.5229 14.6038C12.5864 15.0895 12.4361 15.3344 11.9131 15.2922C11.0895 15.2267 10.2575 15.2119 9.44019 15.0979C9.2454 15.0704 9.01462 14.7706 8.93205 14.5489C8.6801 13.8732 8.59541 13.831 8.12114 14.3293C7.0731 15.4273 5.75829 15.6448 4.3355 15.421C3.77866 15.3323 3.24088 15.1296 2.69675 14.9691C1.21255 14.5299 0.750991 13.0666 0.962717 11.7468C1.3417 9.39874 2.74332 8.69981 5.2311 8.43586C6.03142 8.3514 6.83809 8.29439 7.62359 8.13179C7.99199 8.05578 8.56365 7.82773 8.60176 7.56378C8.67375 7.07178 8.40909 6.46153 8.06821 6.12157C7.26154 5.31495 5.69901 5.60634 5.22898 6.6368C4.94527 7.2576 4.5811 7.27027 3.96074 7.33151C3.34039 7.39274 2.78144 7.36318 2.19496 7.4223C1.48356 7.4941 1.25701 7.26393 1.44333 6.60723C2.00864 4.61179 3.39756 3.49899 5.49152 3.36385C6.08435 3.32584 6.68141 3.30261 7.27424 3.28149C7.63206 3.29205 7.9687 3.34906 8.3244 3.3364H8.32652ZM6.41676 13.1299C7.80144 13.1215 8.94475 11.8714 8.7902 10.5538C8.7415 10.1357 8.53401 9.85907 8.11056 9.93508C7.34623 10.0723 6.57767 10.2265 5.84298 10.4735C5.06172 10.7375 4.60651 11.4829 4.74201 12.0762C4.87116 12.6464 5.64819 13.1362 6.41464 13.1299H6.41676Z" fill="white"/>
<path d="M23.6183 6.96263C23.603 6.50211 23.2068 6.53281 22.5821 6.51746C21.3782 6.48676 21.0735 6.44071 19.8696 6.42536C18.041 6.39466 18.0562 6.50211 18.102 4.62933C18.102 3.99995 18.3915 3.76969 18.9553 3.78504C19.7782 3.78504 20.6011 3.80039 21.4392 3.81575C22.2011 3.8311 22.9478 3.9232 23.7097 3.87715C23.9383 3.87715 24.3192 3.67759 24.3497 3.33987C24.4107 2.66444 24.4259 1.97366 24.4564 1.29823C24.4716 0.807013 24.1973 0.638156 23.7554 0.622805C20.6773 0.576753 17.6143 0.561403 14.5514 0.5C13.9876 0.5 13.7895 0.699559 13.7742 1.23683C13.7742 2.7412 13.7285 4.24556 13.7285 5.74993C13.7285 8.66656 13.759 11.5985 13.7285 14.5152C13.7285 15.1599 14.0333 15.3441 14.5819 15.3748C15.4352 15.4209 16.2733 15.4516 17.1267 15.4976C17.8886 15.5283 18.1477 15.2673 18.1324 14.4998C18.1172 13.1797 18.1172 11.8595 18.0867 10.5393C18.0867 9.94066 18.361 9.649 18.9248 9.649C19.7934 9.649 20.6773 9.72575 21.5458 9.69505C22.1706 9.6797 22.5363 9.72575 23.0697 9.7104C23.283 9.7104 23.4507 9.72575 23.5116 9.15778C23.5573 8.65121 23.6335 7.66876 23.603 6.94728L23.6183 6.96263Z" fill="white"/>
</svg>
