<svg xmlns="http://www.w3.org/2000/svg" width="664" height="88" viewBox="0 0 664 88" fill="none">
<g clip-path="url(#clip0_7339_179991)">
<path d="M309.778 16.8886C309.225 28.9106 309.181 27.3304 319.32 26.9781C322.675 26.8606 323.988 28.3447 323.869 31.4303C323.869 31.6652 323.88 31.9 323.869 32.1456C323.782 37.2135 321.148 39.7866 315.966 39.8648C309.919 39.9503 309.431 40.6122 309.67 46.4524C309.898 51.9829 309.507 57.5561 309.887 63.076C310.375 70.2507 312.622 71.991 319.841 71.6814C323.282 71.5319 323.456 72.4074 323.337 75.3221C323.272 76.8382 323.326 78.696 323.315 80.1053C323.282 86.3832 323.315 86.4472 317.041 87.2373C310.506 88.0594 304.285 87.0771 298.358 84.077C292.04 80.874 290.64 75.1833 290.401 69.151C290.065 60.4175 290.314 51.6626 290.206 42.9184C290.162 39.7154 285.549 38.4769 281.771 40.7083C280.012 41.7439 278.623 43.4202 276.799 44.2636C275.714 44.7654 273.64 44.7761 272.848 44.0928C267.485 39.3844 261.211 37.943 254.274 38.5196C251.365 38.7651 248.89 39.9716 248.629 43.0679C248.358 46.2175 251.006 47.3065 253.547 47.7869C259.029 48.8119 264.565 49.5272 270.069 50.4348C277.407 51.6412 285.755 61.72 284.148 70.1973C282.422 79.3366 276.723 84.0023 268.625 86.0842C256.738 89.1484 245.025 88.5505 234.484 81.2797C234.083 81.0021 233.681 80.7459 233.312 80.4363C227.482 75.5784 227.613 72.749 233.844 68.788C237.079 66.7309 240.01 67.0228 242.637 69.6635C246.892 73.9448 258.106 76.4111 263.447 73.7099C265.14 72.8558 266.79 70.4002 266.964 68.5424C267.235 65.7772 264.511 64.6988 262.003 64.2611C256.271 63.2575 250.496 62.4781 244.775 61.4318C232.118 59.1149 229.078 47.6802 231.922 38.0925C233.866 31.5584 239.966 28.6009 246.176 27.0955C256.412 24.6079 266.638 24.6292 276.191 30.0316C277.722 30.8964 278.905 31.7079 280.153 29.2202C280.74 28.0458 283.291 27.4158 285.028 27.2557C289.945 26.7859 289.989 26.7859 290.097 21.9387C290.314 11.1232 288.979 13.8031 299.4 9.13735C301.593 8.15509 303.981 7.57855 306.272 6.7778C308.237 6.08382 309.322 6.58562 309.409 8.75299C309.518 11.4755 309.67 14.1981 309.8 16.9207L309.778 16.8886Z" fill="white"/>
<path d="M346.532 37.5907C347.802 36.7472 349.734 33.6617 351.232 31.6224C354.011 27.8429 358.126 26.551 362.49 25.7396C365.171 25.2484 366.734 26.2093 366.712 29.0707C366.691 31.8039 366.712 34.5478 366.712 37.5159C370.935 34.3343 374.192 30.9605 378.187 29.0493C389.867 23.4441 401.884 24.6932 413.445 29.4337C419.036 31.7292 420.99 37.4199 422.021 42.8116C422.835 47.0395 422.401 51.4917 422.553 55.8371C422.879 65.0404 423.194 74.2437 423.574 83.447C423.671 85.7639 422.575 86.1269 419.666 86.191C416.756 86.255 413.663 86.1162 410.504 86.1376C407.03 86.1589 405.51 85.7959 404.924 82.9986C404.262 79.817 403.372 79.6461 401.005 81.8028C392.136 89.8851 375.69 89.7249 367.57 81.0021C361.665 74.6601 362.566 59.7021 371.728 56.3603C378.024 54.0648 384.7 52.6982 391.246 51.0967C393.46 50.5522 395.816 50.4454 398.117 50.328C404.978 49.9756 404.555 47.7229 402.253 42.0108C400.94 38.7651 397.52 37.8362 394.025 37.7615C390.866 37.6974 387.816 38.5409 386.849 41.5624C385.373 46.1854 382.279 46.9007 378.035 46.6125C373.302 46.2815 368.808 46.8153 364.085 44.1782C361.589 42.7796 356.063 44.5198 353.056 46.5057C348.16 49.7514 346.304 54.9403 346.727 61.1328C347.238 68.4463 346.89 75.8346 346.565 83.1801C346.499 85.0165 344.589 85.9988 343.427 86.0842C339.085 86.4045 334.678 86.3725 330.336 85.9988C329.185 85.9027 327.307 84.7389 327.263 83.0734C327.187 79.1977 327.144 75.3007 327.166 71.4144C327.22 57.823 327.296 44.2316 327.296 30.6295C327.372 27.9496 328.675 26.8499 331.844 27.0101C334.678 27.1596 337.533 27.1275 340.388 27.0421C344.111 26.9353 345.598 28.1952 345.588 31.3128C345.577 33.288 345.349 36.7686 345.588 37.249C345.696 37.4732 346.271 37.7508 346.543 37.5693L346.532 37.5907ZM392.397 75.3541C399.398 75.4822 405.25 69.5994 404.262 63.0653C404.066 61.784 402.937 59.7768 401.081 59.7768C397.249 59.7768 393.33 60.5242 389.683 61.6666C385.699 62.9158 382.941 67.4747 383.571 70.4215C384.179 73.2722 387.75 75.2687 392.386 75.3541H392.397Z" fill="white"/>
<path d="M467.065 31.9642C467.369 32.103 467.727 31.9108 467.76 31.5905C467.868 30.5122 467.977 29.6901 467.977 28.868C467.977 20.6896 468.02 12.5006 467.922 4.32226C467.89 1.92001 469.008 0.713544 471.277 0.606777C475.272 0.425273 479.277 0.393243 483.283 0.329183C485.975 0.286476 487.267 1.53565 487.245 4.23685C487.202 11.6999 487.213 19.1629 487.267 26.6259C487.321 33.6084 487.614 40.591 487.549 47.5628C487.441 58.0687 487.267 68.5639 486.8 79.0591C486.474 86.49 486.192 85.5718 477.464 86.063C476.596 86.1163 475.098 86.2338 474.067 86.2551C470.875 86.3085 468.617 85.9135 468.53 81.8136C468.487 79.6997 467.206 79.2619 465.415 80.9595C456.09 89.7998 442.966 90.056 433.955 81.141C431.252 78.4718 429.157 74.7136 428.072 71.0836C424.913 60.503 424.826 49.9117 429.483 39.5126C436.604 23.615 455.721 22.5687 465.415 31.0567C465.86 31.4517 466.283 31.6012 467.043 31.9642H467.065ZM468.248 54.7803C468.259 53.3389 468.085 52.047 468.096 50.7445C468.15 45.6304 464.514 40.4415 460.052 39.171C455.97 38.0072 451.053 39.7048 448.795 43.7299C447.362 46.271 446.472 49.2284 446.005 52.1325C445.223 56.9476 445.527 62.0404 448.426 67.9446C449.598 70.5391 451.693 72.7171 452.855 73.283C460.226 76.9024 468.411 71.137 468.259 62.4461C468.215 59.841 468.237 57.2573 468.259 54.7803H468.248Z" fill="white"/>
<path d="M533.845 80.6292C533.628 80.042 532.89 79.8285 532.39 80.2021C529.601 82.3054 527.267 84.3447 524.585 85.722C514.794 90.7614 500.964 85.7754 495.981 76.113C492.594 69.5575 491.085 62.5322 491.454 55.5283C491.932 46.4104 494.146 37.5488 501.561 30.7798C508.345 24.5873 522.284 23.8186 529.546 29.6694C530.23 30.2139 530.914 30.7584 531.859 31.4951C532.445 31.9542 533.313 31.5912 533.389 30.8652C533.498 29.8295 533.585 29.0822 533.585 28.3348C533.585 20.2739 533.617 12.2023 533.53 4.14143C533.498 1.54699 534.822 0.404587 537.243 0.372557C541.368 0.319174 545.493 0.447294 549.618 0.415264C551.724 0.404587 552.745 1.23737 552.745 3.37271C552.766 10.8357 552.831 18.288 552.918 25.751C552.994 33.0859 553.222 40.4208 553.179 47.7557C553.103 59.436 552.929 71.1163 552.517 82.7966C552.473 83.9603 550.53 85.8928 549.293 86.0423C545.71 86.4694 542.041 86.1491 538.404 86.1704C535.745 86.1918 534.355 85.0707 534.301 82.3588C534.301 81.8036 534.095 81.2485 533.856 80.6185L533.845 80.6292ZM511.309 53.3396C510.951 55.5283 510.983 57.7918 511.342 59.5534C512.058 63.0447 513.144 66.4506 514.75 69.5361C515.868 71.6821 518.973 73.5719 521.513 74.1271C527.733 75.483 533.737 69.7176 533.845 62.8312C533.91 58.5712 533.845 54.3112 533.737 50.0619C533.595 44.9584 529.883 40.1646 525.389 39.1289C520.905 38.0933 516.639 39.8549 514.11 44.2964C512.579 46.987 511.841 50.1259 511.309 53.3503V53.3396Z" fill="white"/>
<path d="M38.005 26.3264C52.7685 25.7499 59.3903 40.0033 58.9127 50.8187C58.815 53.0075 58.6847 55.1962 58.7064 57.3849C58.7607 64.3141 58.8367 71.2432 59.0321 78.1724C59.0755 79.8913 59.2926 81.5996 59.5206 83.2972C59.8463 85.7528 59.0755 86.9913 56.3942 86.7778C52.1714 86.4468 47.9052 86.3721 43.715 85.7956C42.7163 85.6568 41.533 84.1407 41.1096 83.0196C39.8178 79.6031 39.3836 79.3895 36.952 81.9092C31.5785 87.4611 24.8372 88.5608 17.5423 87.4291C14.6873 86.9807 11.93 85.9557 9.14013 85.1443C1.53041 82.9235 -0.836094 75.5246 0.249458 68.8517C2.1926 56.9792 9.37895 53.4452 22.1342 52.1106C26.2376 51.6835 30.3735 51.3953 34.4009 50.5732C36.2898 50.1888 39.2208 49.0357 39.4162 47.7011C39.7853 45.2135 38.4283 42.1279 36.6806 40.409C32.5446 36.3305 24.5333 37.8039 22.1233 43.0141C20.6687 46.153 18.8015 46.2171 15.6209 46.5267C12.4402 46.8363 9.57435 46.6869 6.56737 46.9858C2.91992 47.3488 1.75838 46.1851 2.71366 42.8646C5.61209 32.7751 12.7333 27.1485 23.4694 26.4652C26.509 26.273 29.5702 26.1556 32.6098 26.0488C34.4444 26.1022 36.1704 26.3905 37.9941 26.3264H38.005ZM28.2133 75.8449C35.3128 75.8022 41.1748 69.4816 40.3823 62.8193C40.1326 60.7053 39.0688 59.3067 36.8977 59.6911C32.9789 60.385 29.0383 61.1644 25.2714 62.4136C21.2657 63.7482 18.9318 67.5171 19.6266 70.5172C20.2887 73.3999 24.2727 75.8769 28.2024 75.8449H28.2133Z" fill="white"/>
<path d="M101.63 79.4212C101.565 79.0796 101.164 78.9301 100.881 79.1437C100.078 79.7415 99.7632 79.9764 99.4267 80.3608C92.0232 88.9555 75.2949 89.2865 68.4451 82.005C65.0147 78.3536 64.168 73.7733 64.0051 69.193C63.6469 59.0395 63.7012 48.8752 63.6252 38.711C63.6035 35.871 63.4081 32.9777 63.8857 30.2124C64.092 29.0166 65.7529 27.2656 66.871 27.1695C71.0829 26.8065 75.3492 26.988 79.5937 27.0521C82.8938 27.0948 83.0457 29.4437 83.0132 31.8139C82.9155 40.1951 82.6441 48.5763 82.7526 56.9468C82.8069 60.5876 83.3714 64.2817 84.1856 67.8477C85.2168 72.3533 90.992 74.7235 95.2582 72.7056C99.3724 70.7625 101.913 66.0754 101.847 61.6339C101.685 51.1173 101.663 40.6008 101.869 30.095C101.891 29.0166 103.769 27.1375 104.887 27.0735C109.349 26.7852 113.865 26.9453 118.348 27.1695C121.203 27.3083 121.268 29.7533 121.322 31.6965C121.431 35.476 121.159 39.2662 121.17 43.0565C121.192 49.7828 121.409 56.4984 121.355 63.2247C121.301 69.951 121.149 76.6987 120.66 83.4036C120.584 84.4606 118.836 86.0194 117.327 86.2223C113.376 86.7561 109.251 86.7561 105.343 85.9554C103.975 85.6778 103.161 84.2151 102.499 83.0513C101.978 82.1545 101.913 81.0014 101.62 79.4426L101.63 79.4212Z" fill="white"/>
<path d="M226.825 56.733C226.618 62.146 226.477 68.1463 223.557 72.8975C218.65 80.8729 206.557 88.795 193.466 87.4071C189.373 86.9693 185.476 85.5173 181.481 84.535C174.479 82.8054 169.714 77.5418 167.814 71.7978C165.719 65.4558 163.591 58.5373 165.263 51.2772C167.043 43.5259 169.768 36.7355 176.477 31.6321C182.925 26.7208 189.927 24.6282 197.873 25.888C202.758 26.6674 207.686 27.607 212.376 29.123C219.28 31.3545 222.157 35.4223 224.545 41.5721C226.13 45.6612 226.825 53.1242 226.825 56.733ZM207.708 56.6582C206.872 52.3342 206.926 47.519 204.896 43.5579C202.704 39.2552 198.003 38.7107 193.444 39.0417C189.482 39.3193 187.452 42.0952 186.225 45.2662C183.142 53.1669 183.522 61.0357 187.169 68.7335C190.263 75.2463 199.729 76.5168 204.538 71.1572C208.359 66.8972 208.012 61.2919 207.708 56.6582Z" fill="white"/>
<path d="M623.121 60.9092C617.78 60.9092 612.787 60.9305 607.446 61.1014C604.091 61.2081 603.386 62.4146 604.287 65.5002C606.686 73.7319 618.377 77.3299 625.368 70.9559C630.232 66.5251 631.892 66.728 637.168 68.8526C637.972 69.2477 640.251 70.3047 641.033 70.6356C643.692 71.7674 644.094 73.4009 642.281 75.6537C637.364 81.7607 631.274 86.0955 623.219 87.0244C614.969 87.9746 606.697 88.1774 599.141 83.9068C591.781 79.7535 587.884 73.4756 585.865 65.3187C583.607 56.2114 585.181 47.905 588.926 39.8014C592.997 30.9931 601.182 27.5018 610.181 26.0391C622.481 24.0426 635.149 27.4484 642.01 40.0896C645.125 45.8337 645.462 51.9941 644.333 58.0692C643.899 60.4074 642.14 60.7277 640.913 60.7917C635.106 61.08 629.276 60.9199 623.458 60.9199C623.284 60.9199 623.165 60.9199 623.11 60.9199L623.121 60.9092ZM614.513 50.3926C614.513 50.3179 614.513 50.6275 614.513 50.3926C617.303 50.3926 620.136 50.4354 622.872 50.0296C624.142 49.8375 626.139 48.3641 626.204 47.3818C626.552 41.6591 621.33 36.8546 615.262 36.8439C608.9 36.8439 603.929 41.499 603.863 47.4032C603.842 49.5278 604.732 50.4567 606.881 50.414C609.432 50.3606 611.973 50.4033 614.524 50.4033L614.513 50.3926Z" fill="white"/>
<path d="M152.845 16.8127C152.932 27.7883 151.444 26.5818 161.887 26.8915C166.045 27.0196 166.979 27.9378 166.946 32.0163C166.881 40.0024 166.653 40.3014 158.099 39.4899C154.81 39.1803 152.714 39.9704 152.704 43.419C152.671 50.0278 152.573 56.6581 152.975 63.2456C153.355 69.406 156.145 71.5841 162.441 71.5627C166.62 71.552 167.011 71.9364 166.892 76.0362C166.544 87.4923 168.053 86.7449 155.863 87.0332C149.708 87.1827 143.867 87.2361 138.906 82.5917C134.846 78.7908 133.63 74.1144 133.457 69.1284C133.153 60.3842 133.424 51.6293 133.142 42.8851C133.109 41.8281 131.286 40.5042 130.005 39.9277C128.908 39.4366 127.367 39.9704 126.053 39.8209C123.524 39.5433 122.091 38.134 122.189 35.5716C122.265 33.6818 122.221 31.7173 122.786 29.945C123.133 28.8346 124.349 27.7776 125.467 27.1797C125.934 26.9342 127.367 27.0836 128.333 27.0623C132.784 26.9448 133.142 26.5818 133.142 22.3752C133.142 20.2399 132.827 17.9871 133.413 16.0012C133.913 14.325 135.194 12.3071 136.703 11.6024C140.741 9.71267 145.094 8.49553 149.284 6.9047C151.52 6.05057 152.465 6.64846 152.487 8.99733C152.519 11.6024 152.834 14.2076 152.845 16.8127Z" fill="white"/>
<path d="M580.884 20.1561C580.884 29.5195 581.405 38.0716 581.318 47.4243C581.21 59.3502 580.993 71.276 580.787 83.2019C580.754 85.4013 579.516 86.3729 577.28 86.3408C573.155 86.2875 569.03 86.2981 564.894 86.2981C562.69 86.2981 561.475 85.3266 561.485 83.0951C561.507 79.3263 561.54 75.5467 561.551 71.7778C561.627 52.9549 561.703 34.1212 561.768 15.2982C561.779 11.8603 561.909 8.40105 561.605 4.98451C561.323 1.7815 562.929 0.575037 565.773 0.510977C569.649 0.425564 573.535 0.575037 577.421 0.553684C579.679 0.532331 580.852 1.52526 580.863 3.72466C580.884 8.93488 580.863 14.1344 580.863 19.3446C580.863 19.4834 580.863 19.8998 580.873 20.1561H580.884Z" fill="white"/>
</g>
<defs>
<clipPath id="clip0_7339_179991">
<rect width="663.75" height="87.5275" fill="white" transform="translate(0 0.328125)"/>
</clipPath>
</defs>
</svg>