<svg width="59" height="24" viewBox="0 0 59 24" fill="none" xmlns="http://www.w3.org/2000/svg">
<path d="M45.5966 4.99313C47.7786 4.90649 48.7573 7.04843 48.6867 8.67373C48.6723 9.00265 48.6531 9.33156 48.6563 9.66047C48.6643 10.7018 47.619 11.7845 47.6479 12.8258C47.6543 13.0841 48.7429 13.2994 48.7766 13.5545C48.8247 13.9235 48.7108 14.1096 48.3145 14.0775C47.6904 14.0278 47.0598 14.0165 46.4405 13.9299C46.2929 13.909 46.118 13.6812 46.0555 13.5127C45.8645 12.9993 45.8004 12.9672 45.441 13.3459C44.6468 14.1802 43.6504 14.3455 42.5722 14.1754C42.1503 14.108 41.7427 13.954 41.3304 13.832C40.2057 13.4983 39.8559 12.3864 40.0164 11.3836C40.3036 9.5995 41.3657 9.06843 43.2509 8.86787C43.8574 8.80369 44.4687 8.76037 45.0639 8.63683C45.3431 8.57907 45.7763 8.40579 45.8052 8.20524C45.8597 7.8314 45.6592 7.36771 45.4009 7.1094C44.7896 6.4965 43.6055 6.71791 43.2493 7.50088C43.0343 7.97259 42.7583 7.98222 42.2882 8.02875C41.8181 8.07528 41.3946 8.05281 40.9501 8.09774C40.4111 8.15229 40.2394 7.9774 40.3806 7.47842C40.809 5.96222 41.8615 5.11667 43.4483 5.01399C43.8975 4.98511 44.3499 4.96746 44.7992 4.95142C45.0703 4.95944 45.3254 5.00276 45.595 4.99313H45.5966ZM44.1494 12.4346C45.1987 12.4281 46.0651 11.4783 45.948 10.4771C45.9111 10.1595 45.7538 9.94927 45.4329 10.007C44.8537 10.1113 44.2713 10.2284 43.7146 10.4162C43.1226 10.6167 42.7776 11.1831 42.8803 11.6339C42.9782 12.0671 43.567 12.4394 44.1478 12.4346H44.1494Z" fill="white"/>
<path d="M51.6001 13.5366C50.7866 13.4002 49.9684 13.2927 49.1581 13.1387C48.7827 13.0665 48.3912 12.9028 48.4313 12.4295C48.4698 11.9642 48.8356 11.7829 49.2656 11.746C50.2909 11.6594 51.2182 11.876 52.0108 12.5835C52.1279 12.6862 52.4344 12.6846 52.5948 12.6092C52.9751 12.4311 53.4468 12.0765 53.3858 11.6193C53.3505 11.3561 53.243 11.1042 53.0826 10.8941C52.9141 10.6726 52.7344 10.602 52.505 10.4705C51.0931 9.65863 49.5817 9.65542 48.0687 10.0293C47.151 10.2555 46.2493 10.6999 45.9621 11.6818C45.5417 13.1226 45.991 14.841 47.8617 15.1892C48.7073 15.3464 49.5608 15.4635 50.408 15.6143C50.7786 15.6801 51.1813 15.8422 51.1412 16.2577C51.1155 16.5369 50.8717 16.9059 50.6214 17.0343C49.832 17.4402 48.1746 17.0696 47.5457 16.4262C47.1574 16.0299 46.7242 15.985 46.2461 16.2946C45.3251 16.8899 45.3059 17.3151 46.1675 18.0451C46.222 18.0916 46.2814 18.1301 46.3407 18.1718C47.8986 19.2645 49.6298 19.3543 51.3867 18.8938C52.5836 18.581 53.4259 17.8798 53.681 16.5064C53.9185 15.2325 52.6847 13.7179 51.6001 13.5366Z" fill="white"/>
<path d="M15.6966 10.2028C15.6728 9.48455 15.0535 9.53243 14.077 9.50849C12.1953 9.46061 11.7189 9.38878 9.83723 9.36484C6.97898 9.31696 7.0028 9.48455 7.07425 6.56362C7.07425 5.58199 7.52681 5.22286 8.4081 5.24681C9.69431 5.24681 10.9805 5.27075 12.2906 5.29469C13.4815 5.31863 15.2632 5.32718 16.4564 5.32718C17.2573 5.32718 19.2119 4.8575 19.2595 4.33077C19.3548 3.27732 16.959 2.42164 17.0067 1.36819C17.0305 0.602047 18.3484 0.369097 17.6577 0.345155C12.8701 0.297271 6.33587 0.218974 1.52449 0.147148C0.6432 0.123206 0.333556 0.434453 0.309737 1.27242C0.309737 3.61875 0.238281 5.96507 0.238281 8.31139C0.238281 12.8604 0.285919 17.4333 0.238281 21.9823C0.238281 22.9879 0.714656 23.2752 1.57213 23.3231C2.90598 23.3949 4.21601 23.4428 5.54986 23.5146C6.74079 23.5625 7.14571 23.1555 7.12189 21.9584C7.09807 19.8993 7.09807 17.8403 7.05044 15.7813C7.05044 14.8476 7.47917 14.3927 8.36047 14.3927C9.71813 14.3927 11.0996 14.5124 12.4573 14.4645C13.4339 14.4406 14.0055 14.5124 14.8392 14.4884C15.1726 14.4884 15.4346 14.5124 15.5299 13.6265C15.6014 12.8364 15.7205 11.3041 15.6728 10.1789L15.6966 10.2028Z" fill="white"/>
<g clip-path="url(#clip0_7685_173650)">
<path d="M32.8475 0.145508C33.7119 0.145508 34.168 0.461175 34.12 1.40818C34.048 2.98651 34.168 3.6907 34.12 4.9048C34.12 5.34188 33.7599 5.70611 33.3277 5.73039C31.359 5.77896 30.1585 5.80324 28.6219 5.8518C28.3578 5.8518 27.9496 6.45885 27.9256 6.77452C27.8536 8.54711 27.8536 10.344 27.8536 12.1166C27.8536 15.1276 27.8536 18.1385 27.8536 21.1738C27.8536 22.825 27.6317 23.6506 25.967 23.6506C24.8866 23.6506 23.8835 23.6506 22.7058 23.6506C20.8669 23.6506 20.8669 21.723 20.8669 20.8002C20.8669 16.7937 20.8909 14.4962 20.8669 10.4897C20.8669 9.34842 20.8189 8.18288 20.8669 7.04163C20.9149 6.19175 20.6877 5.38386 19.9434 5.33529C18.719 5.28673 16.5487 5.33529 15.1514 5.33529C14.047 5.38386 13.6818 5.13322 13.7539 4.13765C13.7539 3.1178 14.5045 2.08808 14.5525 1.09251C14.6005 0.339765 14.927 0.345115 15.5512 0.345115C18.1682 0.345115 20.939 0.2912 23.556 0.194072C23.604 0.194072 27.2534 0.145508 32.8475 0.145508Z" fill="white"/>
</g>
<path fill-rule="evenodd" clip-rule="evenodd" d="M58.7616 12C58.7616 18.6274 53.389 24 46.7617 24C40.1343 24 34.7617 18.6274 34.7617 12C34.7617 5.37258 40.1343 0 46.7617 0C53.389 0 58.7616 5.37258 58.7616 12ZM46.7617 22.1475C52.3659 22.1475 56.9091 17.6043 56.9091 12C56.9091 6.3957 52.3659 1.85251 46.7617 1.85251C41.1574 1.85251 36.6142 6.3957 36.6142 12C36.6142 17.6043 41.1574 22.1475 46.7617 22.1475Z" fill="white"/>
<defs>
<clipPath id="clip0_7685_173650">
<rect width="19.5675" height="23.5536" fill="white" transform="translate(14.5508 0.145752)"/>
</clipPath>
</defs>
</svg>
